<svg width="20" height="21" viewBox="0 0 20 21" fill="none" xmlns="http://www.w3.org/2000/svg">
<path d="M10 4.66667C12.16 4.66667 14.155 5.05417 15.6417 5.715C16.3834 6.045 17.0367 6.45917 17.5142 6.96167C17.9559 7.42583 18.2759 7.9975 18.3267 8.6525L18.3334 8.83333V12.1667C18.3334 12.8983 17.9967 13.5325 17.5142 14.0383C17.0367 14.5408 16.3842 14.955 15.6417 15.285C14.155 15.9458 12.16 16.3333 10 16.3333C7.84002 16.3333 5.84502 15.9458 4.35835 15.285C3.61669 14.955 2.96335 14.5408 2.48585 14.0383C2.04419 13.5742 1.72419 13.0025 1.67335 12.3475L1.66669 12.1667V8.83333C1.66669 8.10167 2.00335 7.4675 2.48585 6.96167C2.96335 6.45917 3.61585 6.045 4.35835 5.715C5.84502 5.05417 7.84002 4.66667 10 4.66667ZM16.6667 11.4C16.3542 11.605 16.0084 11.7883 15.6417 11.9517C14.155 12.6125 12.16 13 10 13C7.84002 13 5.84502 12.6125 4.35835 11.9517C4.00291 11.7946 3.66021 11.6102 3.33335 11.4V12.1667C3.33335 12.3558 3.41669 12.5983 3.69335 12.89C3.97419 13.185 4.42002 13.4892 5.03502 13.7625C6.26335 14.3083 8.01835 14.6667 10 14.6667C11.9817 14.6667 13.7367 14.3083 14.965 13.7625C15.58 13.4892 16.0259 13.185 16.3067 12.89C16.5842 12.5983 16.6667 12.3558 16.6667 12.1667V11.4Z" fill="#FA990A"/>
</svg>
