<svg width="32" height="33" viewBox="0 0 32 33" fill="none" xmlns="http://www.w3.org/2000/svg">
<path d="M26.6667 24.2475H24.0001V12.5808L16.0001 17.5808L8.00008 12.5808V24.2475H5.33341V8.24748H6.93341L16.0001 13.9141L25.0667 8.24748H26.6667M26.6667 5.58081H5.33341C3.85341 5.58081 2.66675 6.76748 2.66675 8.24748V24.2475C2.66675 24.9547 2.9477 25.633 3.4478 26.1331C3.94789 26.6332 4.62617 26.9141 5.33341 26.9141H26.6667C27.374 26.9141 28.0523 26.6332 28.5524 26.1331C29.0525 25.633 29.3334 24.9547 29.3334 24.2475V8.24748C29.3334 7.54023 29.0525 6.86196 28.5524 6.36186C28.0523 5.86176 27.374 5.58081 26.6667 5.58081Z" fill="#129276"/>
</svg>
