<svg width="32" height="33" viewBox="0 0 32 33" fill="none" xmlns="http://www.w3.org/2000/svg">
<path d="M16.0001 2.91431C14.2491 2.91431 12.5153 3.25918 10.8976 3.92925C9.27996 4.59931 7.81011 5.58144 6.57199 6.81955C4.07151 9.32003 2.66675 12.7114 2.66675 16.2476C2.66675 22.141 6.49341 27.141 11.7867 28.9143C12.4534 29.021 12.6667 28.6076 12.6667 28.2476V25.9943C8.97341 26.7943 8.18675 24.2076 8.18675 24.2076C7.57341 22.661 6.70675 22.2476 6.70675 22.2476C5.49342 21.421 6.80008 21.4476 6.80008 21.4476C8.13341 21.541 8.84008 22.821 8.84008 22.821C10.0001 24.8476 11.9601 24.2476 12.7201 23.9276C12.8401 23.061 13.1867 22.4743 13.5601 22.141C10.6001 21.8076 7.49341 20.661 7.49341 15.581C7.49341 14.101 8.00008 12.9143 8.86675 11.9676C8.73342 11.6343 8.26675 10.2476 9.00008 8.44764C9.00008 8.44764 10.1201 8.08764 12.6667 9.80764C13.7201 9.51431 14.8667 9.36764 16.0001 9.36764C17.1334 9.36764 18.2801 9.51431 19.3334 9.80764C21.8801 8.08764 23.0001 8.44764 23.0001 8.44764C23.7334 10.2476 23.2667 11.6343 23.1334 11.9676C24.0001 12.9143 24.5067 14.101 24.5067 15.581C24.5067 20.6743 21.3867 21.7943 18.4134 22.1276C18.8934 22.541 19.3334 23.3543 19.3334 24.5943V28.2476C19.3334 28.6076 19.5467 29.0343 20.2267 28.9143C25.5201 27.1276 29.3334 22.141 29.3334 16.2476C29.3334 14.4967 28.9885 12.7629 28.3185 11.1452C27.6484 9.52752 26.6663 8.05766 25.4282 6.81955C24.1901 5.58144 22.7202 4.59931 21.1025 3.92925C19.4849 3.25918 17.751 2.91431 16.0001 2.91431Z" fill="#129276"/>
</svg>
