<svg width="100" height="57" viewBox="0 0 100 57" fill="none" xmlns="http://www.w3.org/2000/svg">
<mask id="mask0_207_897" style="mask-type:luminance" maskUnits="userSpaceOnUse" x="0" y="9" width="53" height="35">
<path d="M52.623 9.29496H0V43.8777H52.623V9.29496Z" fill="white"/>
</mask>
<g mask="url(#mask0_207_897)">
<path d="M35.6998 42.605C35.7744 42.61 35.8459 42.6333 35.906 42.6722C35.9662 42.7112 36.0126 42.7641 36.04 42.825C36.0675 42.8859 36.0747 42.9524 36.061 43.0167C36.0472 43.0811 36.0131 43.1407 35.9624 43.1889C35.7293 43.4084 35.4469 43.5835 35.1329 43.7033C34.8188 43.823 34.4802 43.8847 34.1377 43.8844L26.4183 43.907L13.8633 43.9424C13.3347 43.944 12.8191 43.7996 12.3899 43.5295C11.9608 43.2596 11.6401 42.8777 11.4737 42.4388C7.71756 32.5346 3.96087 22.6298 0.203679 12.7244C0.0786922 12.3944 0.0450101 12.0432 0.105402 11.6996C0.165795 11.356 0.318536 11.0299 0.551061 10.748C0.783587 10.4662 1.08925 10.2367 1.44291 10.0784C1.79658 9.92007 2.18812 9.83752 2.58535 9.83751H8.56341C8.65058 9.83757 8.73527 9.86263 8.80458 9.90884C8.87389 9.95506 8.92396 10.0199 8.94715 10.0934L12.7267 22.2805C12.9724 23.072 13.743 23.5154 14.448 23.2687L18.0062 22.0209C18.7116 21.7738 19.0828 20.9303 18.837 20.1374L15.7803 10.2776C15.7643 10.2259 15.7621 10.1716 15.7739 10.119C15.7857 10.0664 15.8112 10.0169 15.8484 9.97431C15.8856 9.93173 15.9335 9.89724 15.9885 9.87351C16.0434 9.84979 16.1039 9.83747 16.1652 9.83751H23.077C23.6065 9.83736 24.1226 9.98397 24.551 10.2563C24.9795 10.5287 25.2983 10.9128 25.462 11.3535L30.029 23.6124C30.3964 24.5964 30.7638 25.5804 31.1313 26.5645C31.1561 26.6312 31.1574 26.7028 31.1349 26.7703C29.5769 31.439 28.0197 36.1079 26.4629 40.777C26.2641 41.3742 26.7706 41.9714 27.5192 42.0253C30.2474 42.2176 32.9744 42.4107 35.6998 42.605Z" fill="#129276"/>
<path d="M24.4923 43.8996L39.0926 43.9418C39.5884 43.9433 40.072 43.8077 40.4744 43.5543C40.8769 43.3009 41.1775 42.9427 41.3336 42.531L49.6661 20.56C49.7834 20.2505 49.8151 19.9211 49.7585 19.5988C49.7021 19.2765 49.5589 18.9706 49.3408 18.7061C49.1228 18.4417 48.8362 18.2264 48.5044 18.0779C48.1728 17.9294 47.8056 17.8519 47.433 17.8518H32.672C32.1756 17.8518 31.6918 17.9892 31.29 18.2444C30.8882 18.4997 30.589 18.8596 30.4353 19.2728C27.7112 26.5825 24.9871 33.8923 22.263 41.202C22.1479 41.5106 22.1179 41.8385 22.1753 42.1592C22.2326 42.4799 22.3759 42.7842 22.5933 43.0472C22.8107 43.3103 23.0959 43.5246 23.4261 43.6727C23.7561 43.8208 24.1215 43.8986 24.4923 43.8996Z" fill="#129276"/>
<path d="M47.5746 20.8187C44.9716 27.8962 42.3677 34.9746 39.7629 42.0537C39.5829 42.5394 39.0154 42.8572 38.398 42.8141C38.2721 42.8039 38.1526 42.7609 38.0547 42.691C37.9533 42.6175 37.8774 42.5205 37.8359 42.4111C37.8223 42.3744 37.8075 42.3376 37.7934 42.3022C35.5637 37.0038 33.3347 31.7054 31.1067 26.4069C31.0578 26.2901 31.0095 26.1743 30.9592 26.0577L30.8541 25.7628L30.6288 25.1366C30.628 25.0744 30.6378 25.0125 30.6583 24.9529C30.756 24.6561 30.8537 24.3596 30.9518 24.0634C31.3977 22.7125 31.8436 21.3617 32.2898 20.011C32.3492 19.8384 32.4559 19.6811 32.6008 19.553C32.7457 19.4249 32.9242 19.3297 33.1208 19.276C33.268 19.2341 33.4223 19.2139 33.577 19.2163L34.7319 19.2346L35.3024 19.2439L46.3447 19.4239C47.2129 19.4382 47.8272 20.1332 47.5746 20.8187Z" fill="#83CDB9"/>
<path d="M42.7903 18.4123L35.9682 37.9732" stroke="#129276" stroke-width="5" stroke-miterlimit="10"/>
<path d="M36.7651 18.7316L30.3712 37.065" stroke="#129276" stroke-width="5" stroke-miterlimit="10"/>
<path d="M47.5416 36.4905C49.2464 34.0719 48.6509 31.0438 46.2116 29.7268C43.7723 28.4099 40.4127 29.3029 38.708 31.7215C37.0031 34.14 37.5986 37.1682 40.038 38.4851C42.4773 39.8021 45.8367 38.909 47.5416 36.4905Z" fill="#A94B25"/>
<path d="M46.8744 36.0247C48.5792 33.6061 47.9838 30.578 45.5444 29.2611C43.1051 27.9441 39.7456 28.8372 38.0408 31.2557C36.3361 33.6743 36.9315 36.7024 39.3708 38.0193C41.8102 39.3363 45.1697 38.4431 46.8744 36.0247Z" fill="#FF8A33"/>
<path d="M45.6038 35.3388C46.8182 33.6159 46.3941 31.4589 44.6564 30.5208C42.9189 29.5827 40.5258 30.2189 39.3115 31.9416C38.0971 33.6644 38.5212 35.8216 40.2589 36.7595C41.9964 37.6976 44.3894 37.0615 45.6038 35.3388Z" fill="#FCC59A"/>
<path d="M35.0989 19.0734C34.7959 17.9672 34.0631 17.0456 33.0517 16.4644C32.2812 16.0261 31.3803 15.7955 30.4615 15.8015C29.3649 15.8015 28.3092 16.1084 27.3953 16.6363L27.6305 17.2597L30.0515 23.6776L30.3271 24.4088L30.5435 24.9836L30.6453 25.2547L30.769 25.5812L30.7864 25.5763C33.0884 24.9735 34.9476 23.0588 35.2202 20.7888C35.2917 20.2151 35.2505 19.635 35.0989 19.0734Z" fill="#A94B25"/>
<path d="M34.5287 19.0577C34.3639 18.0269 33.8342 17.1223 33.0521 16.4649C32.2121 15.7602 31.0824 15.3366 29.7942 15.3366C28.8636 15.3416 27.9496 15.554 27.1385 15.9536L27.3957 16.6367L27.6309 17.2601L30.0514 23.6776L30.327 24.4088L30.5434 24.9836C32.6462 24.2689 34.2967 22.4518 34.5528 20.3229C34.6039 19.9019 34.5959 19.477 34.5287 19.0577Z" fill="#FF8A33"/>
<path d="M33.01 20.3239C32.8243 21.8749 31.597 23.1942 30.0493 23.6776L27.631 17.2592C28.2331 16.9435 28.9208 16.7747 29.6226 16.7704C31.7313 16.7704 33.2464 18.36 33.01 20.3239Z" fill="#FCC59A"/>
<path d="M18.1059 19.8291L15.1499 10.3043C15.0612 10.0186 14.8675 9.76632 14.5987 9.58649C14.33 9.40666 14.0011 9.30922 13.6627 9.3092H11.2842C10.3005 9.3092 9.55818 10.1187 9.80392 10.952C9.80392 10.9589 9.80857 10.9658 9.81067 10.9727L13.163 21.7756C13.3808 22.478 14.0192 22.8667 14.5909 22.6415L17.4685 21.5082C18.0392 21.2845 18.3243 20.5329 18.1059 19.8291ZM15.6156 21.3029C15.3285 21.3234 15.0412 21.2664 14.7924 21.1394C14.5436 21.0124 14.3453 20.8217 14.2243 20.593C14.1034 20.3643 14.0655 20.1086 14.1159 19.8604C14.1662 19.6122 14.3024 19.3836 14.506 19.2053C14.7096 19.0271 14.9708 18.9078 15.2543 18.8636C15.5379 18.8194 15.8301 18.8525 16.0915 18.9583C16.3529 19.0641 16.5708 19.2375 16.7161 19.4552C16.8613 19.6728 16.9266 19.9243 16.9033 20.1755C16.8762 20.4665 16.7318 20.7396 16.4959 20.9462C16.2601 21.1527 15.9481 21.2791 15.6156 21.3029Z" fill="#FF8A33"/>
</g>
<path d="M98.5628 29.1994C98.7377 29.2063 98.7828 29.3304 98.7856 29.3885H99.03C99.0192 29.1629 98.8266 29.0252 98.5587 29.0252C98.2569 29.0252 98.0328 29.1835 98.0328 29.5412C98.0328 29.7621 98.1599 30.0241 98.5574 30.0241C98.8607 30.0241 99.0233 29.8361 99.0274 29.6881H98.7828C98.7787 29.7552 98.7213 29.8453 98.5602 29.8521C98.3812 29.8475 98.3061 29.7313 98.3061 29.5412C98.3061 29.2119 98.4808 29.2016 98.5628 29.1994ZM98.5792 28.3861C97.8251 28.3861 97.2131 28.8964 97.2131 29.5252C97.2131 30.154 97.8251 30.6642 98.5792 30.6642C99.3333 30.6642 99.9454 30.154 99.9454 29.5252C99.9454 28.8964 99.3333 28.3861 98.5792 28.3861ZM98.5792 30.4365C97.9767 30.4365 97.4864 30.0275 97.4864 29.5252C97.4864 29.0228 97.9767 28.6139 98.5792 28.6139C99.1817 28.6139 99.6722 29.0228 99.6722 29.5252C99.6722 30.0275 99.1817 30.4365 98.5792 30.4365Z" fill="#129276"/>
<path d="M52.0492 34.5144H54.2131V43.741H52.0492V34.5144ZM62.6936 44.0281C60.7264 44.0281 58.7346 43.3514 57.8739 41.8137L59.8412 41.055C60.3084 41.8957 61.4887 42.2237 62.669 42.2237C64.169 42.2237 65.669 41.6906 65.669 41.1165C65.669 39.8043 57.9723 40.3784 57.9723 37.1183C57.9723 35.3345 60.4067 34.2068 62.8903 34.2068C64.8084 34.2068 66.751 34.8629 67.6117 36.4212L65.669 37.1799C65.1772 36.3392 64.0215 36.0112 62.8903 36.0112C61.4887 36.0112 60.1362 36.5032 60.1362 37.1183C60.1362 38.4921 67.8084 37.877 67.8084 41.1165C67.8084 42.9004 65.2756 44.0281 62.6936 44.0281ZM71.3525 29.7986H73.5164V43.741H71.3525V29.7986ZM83.1023 42.2237H83.1269C84.2335 42.2237 85.2908 41.8137 86.004 41.096L87.8728 42.0187C86.6433 43.4129 84.922 44.0281 83.2253 44.0281C80.1761 44.0281 77.2253 42.1007 77.2253 39.1277C77.2253 36.0112 80.2253 34.2068 83.2253 34.2068C85.5121 34.2068 87.799 35.273 88.7089 37.5694L80.6433 41.4446C81.3318 41.9572 82.2171 42.2237 83.1023 42.2237ZM79.3646 39.0662C79.3646 39.3532 79.4138 39.6403 79.5121 39.9273C83.6679 37.918 81.5777 38.9227 85.7581 36.9133C84.9958 36.2777 84.0613 35.9906 83.1761 35.9906C81.2335 35.9906 79.3646 37.3029 79.3646 39.0662ZM97.662 42.2442V44.0486C94.3915 44.0486 91.7603 41.8547 91.7603 39.1277V29.7986H93.9243V34.5144H96.8259V36.3187H93.9243V39.1277C93.9243 40.85 95.5964 42.2442 97.662 42.2442Z" fill="#129276"/>
</svg>
